<svg xmlns="http://www.w3.org/2000/svg" viewBox="0 0 512 512">
  <defs>
    <linearGradient id="g" x1="0" y1="0" x2="1" y2="1">
      <stop offset="0" stop-color="#7c3aed"/>
      <stop offset=".55" stop-color="#d926a9"/>
      <stop offset="1" stop-color="#f59e0b"/>
    </linearGradient>
    <linearGradient id="f" x1="0" y1="0" x2="0" y2="1">
      <stop offset="0" stop-color="#FFE45E"/>
      <stop offset="1" stop-color="#FF9E3D"/>
    </linearGradient>
  </defs>
  <rect width="512" height="512" rx="118" fill="url(#g)"/>
  <path d="M152 264 C152 312 160 344 184 344 C204 344 204 312 212 288 C220 320 228 360 260 360 C292 360 292 320 300 288 C308 312 312 328 332 328 C352 328 356 296 356 264 Z" fill="url(#f)"/>
  <circle cx="252" cy="208" r="112" fill="url(#f)"/>
  <g stroke="#1F2937" stroke-width="18" stroke-linecap="round" fill="none">
    <path d="M188 208 Q208 189.6 228 208"/>
    <path d="M276 208 Q296 189.6 316 208"/>
    <path d="M216 248 Q252 276 288 248"/>
  </g>
  <ellipse cx="192" cy="240" rx="18" ry="12" fill="rgba(244,114,182,0.7)"/>
  <ellipse cx="312" cy="240" rx="18" ry="12" fill="rgba(244,114,182,0.7)"/>
  <path d="M328 112 l9.6 22.4 22.4 9.6 -22.4 9.6 -9.6 22.4 -9.6-22.4 -22.4-9.6 22.4-9.6 Z" fill="#fff"/>
</svg>
